<?xml version="1.0" encoding="UTF-8" standalone="no"?>
<svg width="30px" height="30px" viewBox="0 0 30 30" version="1.1" xmlns="http://www.w3.org/2000/svg" xmlns:xlink="http://www.w3.org/1999/xlink">
    <!-- Generator: Sketch 41 (35326) - http://www.bohemiancoding.com/sketch -->
    <title>Group</title>
    <desc>Created with Sketch.</desc>
    <defs></defs>
    <g id="Page-1" stroke="none" stroke-width="1" fill="none" fill-rule="evenodd">
        <g id="Group">
            <polyline id="Fill-32" fill="#1A1918" points="0.593571429 19.9812857 3.51578571 5.00507143 17.9466429 0.0475714286 29.4552857 10.0662857 26.5330714 25.0425 12.1024286 30 0.593571429 19.9812857"></polyline>
            <polyline id="Fill-33" fill="#DD422A" points="4.74085714 25.7916429 0.557357143 11.5017857 10.8409286 0.733928571 25.308 4.25571429 29.4912857 18.5455714 19.2079286 29.3134286 4.74085714 25.7916429"></polyline>
            <path d="M5.70257143,18.2258571 L13.1367857,24.6977143 L22.4586429,21.4952143 L24.3462857,11.8212857 L16.9118571,5.34942857 L7.59,8.55192857 L5.70257143,18.2258571 Z M13.1813571,25.5889286 L12.7607143,25.5068571 L4.95321429,18.7099286 L4.81392857,18.3045 L6.79628571,8.14478571 L7.07764286,7.82164286 L16.8675,4.45842857 L17.2881429,4.54071429 L25.0956429,11.3372143 L25.2349286,11.7424286 L23.2523571,21.9023571 L22.971,22.2255 L13.1813571,25.5889286 L13.1813571,25.5889286 Z" id="Fill-34" fill="#FFFFFF"></path>
            <path d="M10.8409286,0.733928571 L17.0067857,4.86407143" id="Fill-35" fill="#1A1918"></path>
            <path d="M17.0063571,5.29264286 C16.9245,5.29264286 16.8415714,5.26907143 16.7682857,5.22 L10.6024286,1.09007143 C10.4057143,0.958285714 10.353,0.692142857 10.4847857,0.495428571 C10.6165714,0.298714286 10.8822857,0.245785714 11.0794286,0.377785714 L17.2452857,4.50792857 C17.442,4.63971429 17.4945,4.90585714 17.3627143,5.10235714 C17.2802143,5.22578571 17.1445714,5.29264286 17.0063571,5.29264286" id="Fill-36" fill="#FFFFFF"></path>
            <path d="M0.557571429,11.9303571 C0.399428571,11.9303571 0.247285714,11.8425 0.172714286,11.691 C0.0681428571,11.4786429 0.155785714,11.2217143 0.368142857,11.1171429 L7.02771429,7.84221429 C7.2405,7.73785714 7.497,7.82528571 7.60157143,8.03764286 C7.70592857,8.25021429 7.6185,8.50714286 7.40614286,8.6115 L0.746357143,11.8864286 C0.6855,11.9164286 0.621,11.9303571 0.557571429,11.9303571" id="Fill-37" fill="#FFFFFF"></path>
            <path d="M4.74128571,26.2202143 C4.73164286,26.2202143 4.722,26.22 4.71214286,26.2191429 C4.476,26.2035 4.2975,25.9992857 4.31314286,25.7631429 L4.80685714,18.3580714 C4.8225,18.1221429 5.02778571,17.9385 5.26307143,17.9590714 C5.49921429,17.9747143 5.67792857,18.1791429 5.66207143,18.4150714 L5.16835714,25.8201429 C5.15335714,26.0464286 4.96478571,26.2202143 4.74128571,26.2202143" id="Fill-38" fill="#FFFFFF"></path>
            <path d="M19.2075,29.742 C19.1256429,29.742 19.0427143,29.7186429 18.9694286,29.6697857 L12.8035714,25.5396429 C12.6068571,25.4078571 12.5541429,25.1417143 12.6859286,24.945 C12.8175,24.7487143 13.0836429,24.6957857 13.2805714,24.8273571 L19.4464286,28.9572857 C19.6431429,29.0892857 19.6958571,29.3554286 19.5640714,29.5521429 C19.4813571,29.6753571 19.3457143,29.742 19.2075,29.742" id="Fill-39" fill="#FFFFFF"></path>
            <path d="M22.8321429,22.2488571 C22.674,22.2488571 22.5218571,22.161 22.4470714,22.0095 C22.3427143,21.7969286 22.4303571,21.54 22.6427143,21.4356429 L29.3022857,18.1611429 C29.5144286,18.0565714 29.7713571,18.144 29.8759286,18.3565714 C29.9805,18.5689286 29.8928571,18.8258571 29.6805,18.9302143 L23.0209286,22.2049286 C22.9600714,22.2347143 22.8955714,22.2488571 22.8321429,22.2488571" id="Fill-40" fill="#FFFFFF"></path>
            <path d="M24.8147143,12.0891429 C24.8050714,12.0891429 24.7954286,12.0889286 24.7857857,12.0880714 C24.5496429,12.0724286 24.3709286,11.868 24.3867857,11.6320714 L24.8802857,4.22721429 C24.8961429,3.99107143 25.1016429,3.81214286 25.3365,3.82821429 C25.5726429,3.84385714 25.7513571,4.04785714 25.7357143,4.28421429 L25.242,11.6888571 C25.227,11.9153571 25.0384286,12.0891429 24.8147143,12.0891429" id="Fill-41" fill="#FFFFFF"></path>
            <polyline id="Fill-42" fill="#FFFFFF" points="5.23457143 18.3865714 7.21692857 8.22685714 17.0067857 4.86407143 24.8142857 11.6605714 22.8317143 21.8202857 13.0420714 25.1835 5.23457143 18.3865714"></polyline>
            <path d="M16.4022857,16.176 L14.6151429,16.176 C13.926,16.176 13.4957143,16.5634286 13.4957143,17.1017143 C13.4957143,17.6181429 13.8833571,18.0702857 14.6584286,18.0702857 C15.3475714,18.0702857 15.6700714,18.0057857 16.0575,17.6395714 C16.3161429,17.403 16.4022857,17.0367857 16.4022857,16.4772857 L16.4022857,16.176 Z M16.4886429,20.8262143 L16.4886429,19.8790714 C15.7778571,20.5894286 15.1322143,20.9337857 13.905,20.9337857 C12.7422857,20.9337857 11.7728571,20.5465714 11.1274286,19.9005 C10.4601429,19.2332143 10.1153571,18.2644286 10.1153571,17.1876429 C10.1153571,15.4435714 11.2997143,13.8289286 14.0556429,13.8289286 L16.4022857,13.8289286 L16.4022857,13.5272143 C16.4022857,12.4725 15.8856429,12.0848571 14.6584286,12.0848571 C13.7543571,12.0848571 13.3667143,12.3004286 12.8067857,12.8599286 L10.6107857,10.6635 C11.7947143,9.47957143 12.8712857,9.11378571 14.8302857,9.11378571 C18.1461429,9.11378571 19.9335,10.4916429 19.9335,13.3120714 L19.9335,20.8262143 L16.4886429,20.8262143 L16.4886429,20.8262143 Z" id="Fill-43" fill="#1A1918"></path>
        </g>
    </g>
</svg>