<?xml version="1.0" encoding="UTF-8" standalone="no"?>
<svg width="199px" height="40px" viewBox="0 0 199 40" version="1.1" xmlns="http://www.w3.org/2000/svg" xmlns:xlink="http://www.w3.org/1999/xlink">
    <!-- Generator: Sketch 41 (35326) - http://www.bohemiancoding.com/sketch -->
    <title>Group 2</title>
    <desc>Created with Sketch.</desc>
    <defs></defs>
    <g id="Page-1" stroke="none" stroke-width="1" fill="none" fill-rule="evenodd">
        <g id="Group-2">
            <path d="M67.9249728,23.5805405 L62.5389946,23.5805405 C60.4624728,23.5805405 59.1646467,24.7481081 59.1646467,26.3697297 C59.1646467,27.9264865 60.3326902,29.2875676 62.6687772,29.2875676 C64.7452989,29.2875676 65.7186685,29.0940541 66.886712,27.9902703 C67.6654076,27.2778378 67.9249728,26.1751351 67.9249728,24.4886486 L67.9249728,23.5805405 Z M68.184538,37.5902703 L68.184538,34.7362162 C66.043125,36.8767568 64.0963859,37.9145946 60.3975815,37.9145946 C56.8934511,37.9145946 53.9733424,36.7481081 52.0276848,34.8010811 C50.0160543,32.7913514 48.9777935,29.8713514 48.9777935,26.6281081 C48.9777935,21.3740541 52.5457337,16.5102703 60.8518207,16.5102703 L67.9249728,16.5102703 L67.9249728,15.6010811 C67.9249728,12.4237838 66.3675815,11.2562162 62.6687772,11.2562162 C59.9433424,11.2562162 58.7752989,11.9048649 57.088125,13.5913514 L50.4702935,6.97621622 C54.0382337,3.40756757 57.2827989,2.30486486 63.1879076,2.30486486 C73.1811685,2.30486486 78.5671467,6.45621622 78.5671467,14.9535135 L78.5671467,37.5902703 L68.184538,37.5902703 L68.184538,37.5902703 Z" id="Fill-27" fill="#1A1918"></path>
            <path d="M98.7548315,37.9783784 C92.7199402,37.9783784 83.0511359,35.3848649 83.0511359,20.1427027 C83.0511359,4.90054054 92.7199402,2.30486486 98.7548315,2.30486486 C103.621679,2.30486486 107.384293,3.92648649 110.239511,6.78054054 L103.037658,13.9805405 C101.673859,12.6172973 100.506897,11.9048649 98.7548315,11.9048649 C97.3272228,11.9048649 96.3538533,12.3589189 95.445375,13.267027 C94.2124402,14.5643243 93.6933098,16.8345946 93.6933098,20.1427027 C93.6933098,23.4497297 94.2124402,25.7210811 95.445375,27.0183784 C96.3538533,27.9264865 97.3272228,28.3805405 98.7548315,28.3805405 C100.506897,28.3805405 101.673859,27.6659459 103.037658,26.3048649 L110.239511,33.5048649 C107.384293,36.3567568 103.621679,37.9783784 98.7548315,37.9783784" id="Fill-28" fill="#1A1918"></path>
            <path d="M152.443734,37.5902703 L152.443734,16.7048649 C152.443734,12.6832432 149.588516,11.9048649 148.161989,11.9048649 C146.733299,11.9048649 143.879163,12.6832432 143.879163,16.7048649 L143.879163,37.5902703 L133.236989,37.5902703 L133.236989,16.7048649 C133.236989,12.6832432 130.381772,11.9048649 128.954163,11.9048649 C127.526554,11.9048649 124.671337,12.6832432 124.671337,16.7048649 L124.671337,37.5902703 L114.030245,37.5902703 L114.030245,2.69405405 L124.411772,2.69405405 L124.411772,5.54810811 C126.553185,3.40756757 129.732859,2.30486486 132.523185,2.30486486 C135.962424,2.30486486 138.75275,3.40756757 141.023946,6.00216216 C144.072755,3.3427027 146.863082,2.30486486 150.886342,2.30486486 C154.195799,2.30486486 157.375473,3.40756757 159.257321,5.28864865 C162.242321,8.27243243 163.085908,11.5816216 163.085908,15.2778378 L163.085908,37.5902703 L152.443734,37.5902703" id="Fill-29" fill="#1A1918"></path>
            <path d="M187.888446,13.7859459 C187.238451,12.2951351 185.811924,11.0616216 183.281163,11.0616216 C180.750402,11.0616216 179.322793,12.2951351 178.674962,13.7859459 C178.220723,14.692973 178.089859,15.667027 178.089859,16.5102703 L188.471386,16.5102703 C188.471386,15.667027 188.342685,14.692973 187.888446,13.7859459 Z M178.089859,23.5805405 C178.089859,26.4345946 180.297245,29.0281081 184.254533,29.0281081 C187.953337,29.0281081 189.57562,27.9902703 191.456386,26.1102703 L197.816815,32.4659459 C194.246712,36.0345946 190.743663,37.9783784 184.254533,37.9783784 C176.532467,37.9783784 167.642359,35.1902703 167.642359,20.1427027 C167.642359,8.72648649 174.131489,2.30486486 183.281163,2.30486486 C193.404207,2.30486486 198.984859,9.69945946 198.984859,18.8443243 L198.984859,23.5805405 L178.089859,23.5805405 L178.089859,23.5805405 Z" id="Fill-30" fill="#1A1918"></path>
            <path d="M27.7572554,27.7827027 L17.0155815,30.7135135 L9.10641304,22.8778378 L11.94,12.1135135 L22.6827554,9.18486486 L30.5908424,17.0183784 L27.7572554,27.7827027 Z M35.1678424,6.90594595 L16.2098478,0.166486486 L0.890092391,13.2064865 L4.52833152,32.9891892 L23.4863261,39.7318919 L38.8060815,26.6908108 L35.1678424,6.90594595 L35.1678424,6.90594595 Z" id="Fill-31" fill="#DD422A"></path>
        </g>
    </g>
</svg>